HIERARCHY
ROOT joint_Root
{
	OFFSET 0.0 0.0 0.0
	CHANNELS 6 Xposition Yposition Zposition Zrotation Xrotation Yrotation 
	JOINT Hips
	{
		OFFSET -17.1583 93.1646 452.98
		CHANNELS 6 Xposition Yposition Zposition Zrotation Xrotation Yrotation 
		JOINT Spine
		{
			OFFSET 15.7357 0.0 0.0
			CHANNELS 6 Xposition Yposition Zposition Zrotation Xrotation Yrotation 
			JOINT Chest
			{
				OFFSET 8.98455 -0.406207 0.0
				CHANNELS 6 Xposition Yposition Zposition Zrotation Xrotation Yrotation 
				JOINT Neck
				{
					OFFSET 16.3773 0.0 0.0
					CHANNELS 6 Xposition Yposition Zposition Zrotation Xrotation Yrotation 
					JOINT Head
					{
						OFFSET 6.45672 0.0 0.0
						CHANNELS 6 Xposition Yposition Zposition Zrotation Xrotation Yrotation 
						End Site
						{
							OFFSET 0.0 0.0 0.0
						}
					}
				}
				JOINT Shoulder_L
				{
					OFFSET 12.9942 -0.242716 4.98039
					CHANNELS 6 Xposition Yposition Zposition Zrotation Xrotation Yrotation 
					JOINT UpperArm_L
					{
						OFFSET 5.34809 0.0 0.0
						CHANNELS 6 Xposition Yposition Zposition Zrotation Xrotation Yrotation 
						JOINT LowerArm_L
						{
							OFFSET 24.3286 1.87007e-05 0.0
							CHANNELS 6 Xposition Yposition Zposition Zrotation Xrotation Yrotation 
							JOINT Hand_L
							{
								OFFSET 22.2916 0.0 0.0
								CHANNELS 6 Xposition Yposition Zposition Zrotation Xrotation Yrotation 
								End Site
								{
									OFFSET 0.0 0.0 0.0
								}
							}
						}
					}
				}
				JOINT Shoulder_R
				{
					OFFSET 12.9945 -0.242716 -4.98039
					CHANNELS 6 Xposition Yposition Zposition Zrotation Xrotation Yrotation 
					JOINT UpperArm_R
					{
						OFFSET -5.34813 0.0 0.0
						CHANNELS 6 Xposition Yposition Zposition Zrotation Xrotation Yrotation 
						JOINT LowerArm_R
						{
							OFFSET -24.3289 0.000322201 0.0
							CHANNELS 6 Xposition Yposition Zposition Zrotation Xrotation Yrotation 
							JOINT Hand_R
							{
								OFFSET -22.2915 -0.000108084 0.0
								CHANNELS 6 Xposition Yposition Zposition Zrotation Xrotation Yrotation 
								End Site
								{
									OFFSET 0.0 0.0 0.0
								}
							}
						}
					}
				}
			}
		}
		JOINT UpperLeg_L
		{
			OFFSET -2.19248 -6.46944 0.0
			CHANNELS 6 Xposition Yposition Zposition Zrotation Xrotation Yrotation 
			JOINT LowerLeg_L
			{
				OFFSET 39.0811 0.0 -1.23785e-05
				CHANNELS 6 Xposition Yposition Zposition Zrotation Xrotation Yrotation 
				JOINT Foot_L
				{
					OFFSET 40.9854 0.0 -1.26872e-05
					CHANNELS 6 Xposition Yposition Zposition Zrotation Xrotation Yrotation 
					JOINT Toes_L
					{
						OFFSET 11.7543 0.0 0.0
						CHANNELS 6 Xposition Yposition Zposition Zrotation Xrotation Yrotation 
						End Site
						{
							OFFSET 0.0 0.0 0.0
						}
					}
				}
			}
		}
		JOINT UpperLeg_R
		{
			OFFSET -2.19251 6.46944 0.0
			CHANNELS 6 Xposition Yposition Zposition Zrotation Xrotation Yrotation 
			JOINT LowerLeg_R
			{
				OFFSET -39.0811 -0.00228153 -0.0401928
				CHANNELS 6 Xposition Yposition Zposition Zrotation Xrotation Yrotation 
				JOINT Foot_R
				{
					OFFSET -40.9854 0.0 0.0
					CHANNELS 6 Xposition Yposition Zposition Zrotation Xrotation Yrotation 
					JOINT Toes_R
					{
						OFFSET -11.7543 0.0 0.0
						CHANNELS 6 Xposition Yposition Zposition Zrotation Xrotation Yrotation 
						End Site
						{
							OFFSET 0.0 0.0 0.0
						}
					}
				}
			}
		}
	}
}
MOTION
Frames:	4
Frame Time:	0.0333333
0.000000 0.000000 0.000000 0.000000 0.000000 -0.000000 -3.946930 91.654300 -1.737220 83.724200 0.068652 8.031500 15.735700 0.000005 -0.000001 73.663500 86.104700 -71.589300 8.984550 -0.406207 -0.000000 -0.244030 -2.335700 4.141540 16.377300 -0.000001 -0.000001 11.687100 2.053780 5.555360 6.456720 -0.000001 -0.000000 -4.984230 1.110180 14.791800 12.994200 -0.242716 4.980390 -92.767000 7.765770 -70.319200 5.348090 -0.000007 -0.000001 -72.804700 23.980500 1.661680 24.328600 0.000019 0.000005 10.417500 26.275000 -22.553600 22.291600 -0.000001 0.000005 -1.957130 4.969120 7.969320 12.994500 -0.242716 -4.980390 86.911800 7.340910 -67.108500 -5.348130 -0.000001 -0.000004 -70.645600 -5.393240 -14.895000 -24.328900 0.000322 -0.000009 10.196400 -12.862900 -141.063000 -22.291500 -0.000108 -0.000004 48.812300 5.681870 -20.695900 -2.192480 -6.469440 -0.000000 -172.695000 8.631260 -1.559160 39.081100 -0.000007 -0.000012 0.420411 -0.718443 30.335900 40.985400 -0.000006 -0.000013 -1.678860 0.572410 -76.733800 11.754300 -0.000000 0.000003 0.000515 0.158458 -10.150200 -2.192510 6.469440 -0.000001 -169.995000 9.983450 -174.163000 -39.081100 -0.002282 -0.040193 0.154393 -0.480992 17.436400 -40.985400 0.000008 0.000006 6.484680 3.493110 -71.968900 -11.754300 -0.000006 -0.000006 -0.011138 0.279622 -5.210670
0.000000 0.000000 0.000000 0.000000 0.000000 -0.000000 -3.959110 91.670800 -1.759710 83.766300 0.106265 7.908520 15.735700 0.000005 -0.000001 73.603500 86.120500 -71.516000 8.984550 -0.406207 -0.000000 -0.276288 -2.336140 4.167400 16.377300 -0.000001 -0.000001 11.771800 2.075780 5.300850 6.456720 -0.000001 -0.000000 -5.049750 1.071020 14.426300 12.994200 -0.242716 4.980390 -92.786900 7.767750 -70.193000 5.348090 -0.000007 -0.000001 -72.935800 23.616800 1.645180 24.328600 0.000019 0.000005 10.388600 26.267900 -22.501100 22.291600 -0.000001 0.000005 -1.910960 4.966800 8.017090 12.994500 -0.242716 -4.980390 86.926300 7.280010 -67.035200 -5.348130 -0.000001 -0.000004 -70.571400 -5.501780 -14.903700 -24.328900 0.000322 -0.000009 10.030800 -12.634700 -141.038000 -22.291500 -0.000108 -0.000004 48.525200 5.681610 -20.441100 -2.192480 -6.469440 -0.000000 -172.698000 8.608650 -1.658140 39.081100 -0.000007 -0.000012 0.414867 -0.711765 30.237700 40.985400 -0.000006 -0.000013 -1.681040 0.608950 -76.682300 11.754300 -0.000000 0.000003 0.000525 0.158254 -10.158500 -2.192510 6.469440 -0.000001 -170.007000 9.944120 -174.286000 -39.081100 -0.002282 -0.040193 0.151595 -0.473730 17.379400 -40.985400 0.000008 0.000006 6.437300 3.490780 -71.886500 -11.754300 -0.000006 -0.000006 -0.010297 0.273509 -5.460820
0.000000 0.000000 0.000000 0.000000 0.000000 -0.000000 -3.965260 91.685100 -1.773640 83.801700 0.056841 7.846320 15.735700 0.000005 -0.000001 74.111000 86.131500 -72.012500 8.984550 -0.406207 -0.000000 -0.279292 -2.264990 4.189560 16.377300 -0.000001 -0.000001 11.935700 2.122130 4.982090 6.456720 -0.000001 -0.000000 -5.175210 1.082750 14.106800 12.994200 -0.242716 4.980390 -92.808700 7.818510 -70.168300 5.348090 -0.000007 -0.000001 -72.957100 23.388200 1.673000 24.328600 0.000019 0.000005 10.440100 26.274900 -22.598600 22.291600 -0.000001 0.000005 -1.801480 4.965620 8.042080 12.994500 -0.242716 -4.980390 86.926000 7.249990 -66.947900 -5.348130 -0.000001 -0.000004 -70.542900 -5.660240 -14.933200 -24.328900 0.000322 -0.000009 10.033200 -12.584400 -140.921000 -22.291500 -0.000108 -0.000004 48.247900 5.681500 -20.345100 -2.192480 -6.469440 -0.000000 -172.708000 8.529520 -1.679080 39.081100 -0.000007 -0.000012 0.412197 -0.709691 30.149500 40.985400 -0.000006 -0.000013 -1.680930 0.626027 -76.646700 11.754300 -0.000000 0.000003 0.000452 0.159629 -10.102700 -2.192510 6.469440 -0.000001 -169.992000 9.758590 -174.335000 -39.081100 -0.002282 -0.040193 0.150331 -0.470950 17.335700 -40.985400 0.000008 0.000006 6.356250 3.381190 -71.843200 -11.754300 -0.000006 -0.000006 -0.010599 0.275726 -5.370110
0.000000 0.000000 0.000000 0.000000 0.000000 -0.000000 -3.973050 91.694800 -1.790450 83.841900 0.020394 7.767100 15.735700 0.000005 -0.000001 74.473600 86.132200 -72.368700 8.984550 -0.406207 -0.000000 -0.268173 -2.217710 4.202540 16.377300 -0.000001 -0.000001 11.952700 2.167480 4.699680 6.456720 -0.000001 -0.000000 -5.148160 1.129520 13.775600 12.994200 -0.242716 4.980390 -92.832700 7.853460 -70.093700 5.348090 -0.000007 -0.000001 -72.931600 23.390500 1.635820 24.328600 0.000019 0.000005 10.401200 26.056000 -22.679200 22.291600 -0.000001 0.000005 -1.833570 4.965830 8.037770 12.994500 -0.242716 -4.980390 86.931500 7.216680 -66.890700 -5.348130 -0.000001 -0.000004 -70.499500 -5.748400 -14.977600 -24.328900 0.000322 -0.000009 10.137700 -12.656400 -140.782000 -22.291500 -0.000108 -0.000004 48.272300 5.681140 -20.116600 -2.192480 -6.469440 -0.000000 -172.719000 8.443410 -1.733050 39.081100 -0.000007 -0.000012 0.409213 -0.706728 30.072900 40.985400 -0.000006 -0.000013 -1.666580 0.675726 -76.538200 11.754300 -0.000000 0.000003 0.000573 0.157343 -10.195500 -2.192510 6.469440 -0.000001 -170.008000 9.754700 -174.383000 -39.081100 -0.002282 -0.040193 0.151095 -0.475792 17.253600 -40.985400 0.000008 0.000006 6.492490 3.356260 -71.828900 -11.754300 -0.000006 -0.000006 -0.011044 0.278948 -5.238250
